<svg width="64" height="64" viewBox="0 0 64 64" fill="none" xmlns="http://www.w3.org/2000/svg" role="img" aria-labelledby="title desc">
  <title id="title">Logo VR</title>
  <desc id="desc">Monograma VR em azul ciano e branco.</desc>
  <rect x="1" y="1" width="62" height="62" rx="18" fill="#02070A" stroke="#1DBBFF" stroke-opacity="0.24"/>
  <path d="M13 16L26.6 48L32.1 36.1L24.4 16H13Z" fill="url(#paint0_linear)"/>
  <path d="M30.4 16H41.7C48.2 16 52.2 19.4 52.2 24.9C52.2 29 49.9 31.9 46 33.2L53 48H42.9L37.4 35H35.1L29.2 48H23.4L30.4 16ZM37.7 27.9H40.9C43 27.9 44.2 26.9 44.2 25.1C44.2 23.3 43 22.3 40.9 22.3H39L37.7 27.9Z" fill="#F6FBFF"/>
  <defs>
    <linearGradient id="paint0_linear" x1="13" y1="16" x2="36.6" y2="43.1" gradientUnits="userSpaceOnUse">
      <stop stop-color="#F6FBFF"/>
      <stop offset="0.48" stop-color="#23BFFF"/>
      <stop offset="1" stop-color="#0879D7"/>
    </linearGradient>
  </defs>
</svg>
